# xmcd
#
# Track frame offsets:
#	183
#	11490
#	23175
#	34768
#	45805
#	57280
#	69720
#	80008
#	90668
#	101573
#	113923
#	119665
#	126560
#	133813
#	144310
#	152985
#	158655
#	166895
#	174105
#	191818
#
# Disc length: 2697 seconds
#
# Revision: 2
# Processed by: cddbd v1.5.2PL0 Copyright (c) Steve Scherf et al.
# Submitted via: audiograbber 1.83.01
#
DISCID=0f0a8714
DTITLE=Merle Haggard and Buck Owens - Stars Over Bakersfield - Their Early Record
DTITLE=ings
DYEAR=1993
DGENRE=Country
TTITLE0=Merle Haggard - (My friends are gonna be) Strangers
TTITLE1=Merle Haggard - Sam Hill
TTITLE2=Merle Haggard - Sing a sad song
TTITLE3=Merle Haggard - Please Mr DJ
TTITLE4=Merle Haggard - You don't have far to go
TTITLE5=Merle Haggard - Just between the two of us
TTITLE6=Merle Haggard - You don't even try
TTITLE7=Merle Haggard - Slowly but surely
TTITLE8=Buck Owens - Down on the corner of love
TTITLE9=Buck Owens - The house down the block
TTITLE10=Buck Owens - Blue love
TTITLE11=Buck Owens - You're fer me
TTITLE12=Buck Owens - Please don't take her from me
TTITLE13=Buck Owens - It don't show on me
TTITLE14=Buck Owens - Why don't mommy stay with daddy and me
TTITLE15=Buck Owens - Three dimension love
TTITLE16=Buck Owens - Honneysuckle
TTITLE17=Buck Owens - That ain't right baby
TTITLE18=Buck Owens - Leavin' dirty tracks
TTITLE19=Buck Owens - Right after the dance
EXTD=C 1993 Intermusic S.A.\nP 1993 Movieplay S.A.\nCountry Stars CTS 55418
EXTT0=
EXTT1=
EXTT2=
EXTT3=
EXTT4=
EXTT5=
EXTT6=
EXTT7=
EXTT8=
EXTT9=
EXTT10=
EXTT11=
EXTT12=
EXTT13=
EXTT14=
EXTT15=
EXTT16=
EXTT17=
EXTT18=
EXTT19=
PLAYORDER=
